<mxfile host="Electron" modified="2023-09-29T05:31:30.723Z" agent="Mozilla/5.0 (Macintosh; Intel Mac OS X 10_15_7) AppleWebKit/537.36 (KHTML, like Gecko) draw.io/22.0.0 Chrome/114.0.5735.289 Electron/25.8.3 Safari/537.36" etag="qOTJERGAgdatJ6YeUlZ1" version="22.0.0" type="device">
  <diagram name="페이지-1" id="yUv29tTsHgjJTiJkKY9i">
    <mxGraphModel dx="1114" dy="894" grid="1" gridSize="10" guides="1" tooltips="1" connect="1" arrows="1" fold="1" page="1" pageScale="1" pageWidth="827" pageHeight="1169" math="0" shadow="0">
      <root>
        <mxCell id="0" />
        <mxCell id="1" parent="0" />
        <mxCell id="LeOhQyQI-MQeP6lEQ9t9-3" style="edgeStyle=orthogonalEdgeStyle;rounded=0;orthogonalLoop=1;jettySize=auto;html=1;exitX=1;exitY=0.25;exitDx=0;exitDy=0;entryX=0;entryY=0.25;entryDx=0;entryDy=0;endArrow=block;endFill=1;" edge="1" parent="1" source="LeOhQyQI-MQeP6lEQ9t9-1" target="LeOhQyQI-MQeP6lEQ9t9-2">
          <mxGeometry relative="1" as="geometry" />
        </mxCell>
        <mxCell id="LeOhQyQI-MQeP6lEQ9t9-5" style="edgeStyle=orthogonalEdgeStyle;rounded=0;orthogonalLoop=1;jettySize=auto;html=1;exitX=1;exitY=0.75;exitDx=0;exitDy=0;entryX=0;entryY=0.75;entryDx=0;entryDy=0;endArrow=none;endFill=0;startArrow=block;startFill=1;" edge="1" parent="1" source="LeOhQyQI-MQeP6lEQ9t9-1" target="LeOhQyQI-MQeP6lEQ9t9-2">
          <mxGeometry relative="1" as="geometry" />
        </mxCell>
        <mxCell id="LeOhQyQI-MQeP6lEQ9t9-1" value="클라이언트&lt;br&gt;클래스" style="rounded=1;whiteSpace=wrap;html=1;" vertex="1" parent="1">
          <mxGeometry x="120" y="80" width="80" height="220" as="geometry" />
        </mxCell>
        <mxCell id="LeOhQyQI-MQeP6lEQ9t9-4" style="edgeStyle=orthogonalEdgeStyle;rounded=0;orthogonalLoop=1;jettySize=auto;html=1;entryX=1;entryY=0.5;entryDx=0;entryDy=0;endArrow=block;endFill=1;" edge="1" parent="1" source="LeOhQyQI-MQeP6lEQ9t9-2" target="LeOhQyQI-MQeP6lEQ9t9-1">
          <mxGeometry relative="1" as="geometry" />
        </mxCell>
        <mxCell id="LeOhQyQI-MQeP6lEQ9t9-2" value="서버&lt;br&gt;클래스" style="rounded=1;whiteSpace=wrap;html=1;" vertex="1" parent="1">
          <mxGeometry x="440" y="80" width="80" height="220" as="geometry" />
        </mxCell>
        <mxCell id="LeOhQyQI-MQeP6lEQ9t9-6" value="메서드가 실행될 때" style="text;html=1;strokeColor=none;fillColor=none;align=center;verticalAlign=middle;whiteSpace=wrap;rounded=0;" vertex="1" parent="1">
          <mxGeometry x="198" y="115" width="110" height="20" as="geometry" />
        </mxCell>
        <mxCell id="LeOhQyQI-MQeP6lEQ9t9-7" value="메서드가 리턴될 때" style="text;html=1;strokeColor=none;fillColor=none;align=center;verticalAlign=middle;whiteSpace=wrap;rounded=0;" vertex="1" parent="1">
          <mxGeometry x="330" y="170" width="110" height="20" as="geometry" />
        </mxCell>
        <mxCell id="LeOhQyQI-MQeP6lEQ9t9-8" value="예외가 발생될 때" style="text;html=1;strokeColor=none;fillColor=none;align=center;verticalAlign=middle;whiteSpace=wrap;rounded=0;" vertex="1" parent="1">
          <mxGeometry x="336" y="225" width="110" height="20" as="geometry" />
        </mxCell>
        <mxCell id="LeOhQyQI-MQeP6lEQ9t9-10" style="edgeStyle=orthogonalEdgeStyle;rounded=0;orthogonalLoop=1;jettySize=auto;html=1;exitX=1;exitY=0.25;exitDx=0;exitDy=0;entryX=0;entryY=0.25;entryDx=0;entryDy=0;endArrow=block;endFill=1;" edge="1" parent="1" source="LeOhQyQI-MQeP6lEQ9t9-12" target="LeOhQyQI-MQeP6lEQ9t9-14">
          <mxGeometry relative="1" as="geometry" />
        </mxCell>
        <mxCell id="LeOhQyQI-MQeP6lEQ9t9-11" style="edgeStyle=orthogonalEdgeStyle;rounded=0;orthogonalLoop=1;jettySize=auto;html=1;exitX=1;exitY=0.75;exitDx=0;exitDy=0;entryX=0;entryY=0.75;entryDx=0;entryDy=0;endArrow=none;endFill=0;startArrow=block;startFill=1;" edge="1" parent="1" source="LeOhQyQI-MQeP6lEQ9t9-12" target="LeOhQyQI-MQeP6lEQ9t9-14">
          <mxGeometry relative="1" as="geometry" />
        </mxCell>
        <mxCell id="LeOhQyQI-MQeP6lEQ9t9-12" value="클라이언트&lt;br&gt;클래스" style="rounded=1;whiteSpace=wrap;html=1;" vertex="1" parent="1">
          <mxGeometry x="120" y="430" width="80" height="220" as="geometry" />
        </mxCell>
        <mxCell id="LeOhQyQI-MQeP6lEQ9t9-13" style="edgeStyle=orthogonalEdgeStyle;rounded=0;orthogonalLoop=1;jettySize=auto;html=1;entryX=1;entryY=0.5;entryDx=0;entryDy=0;endArrow=block;endFill=1;" edge="1" parent="1" source="LeOhQyQI-MQeP6lEQ9t9-14" target="LeOhQyQI-MQeP6lEQ9t9-12">
          <mxGeometry relative="1" as="geometry" />
        </mxCell>
        <mxCell id="LeOhQyQI-MQeP6lEQ9t9-14" value="서버&lt;br&gt;클래스" style="rounded=1;whiteSpace=wrap;html=1;" vertex="1" parent="1">
          <mxGeometry x="440" y="430" width="80" height="220" as="geometry" />
        </mxCell>
        <mxCell id="LeOhQyQI-MQeP6lEQ9t9-15" value="메서드가 실행될 때" style="text;html=1;strokeColor=none;fillColor=none;align=center;verticalAlign=middle;whiteSpace=wrap;rounded=0;" vertex="1" parent="1">
          <mxGeometry x="198" y="465" width="110" height="20" as="geometry" />
        </mxCell>
        <mxCell id="LeOhQyQI-MQeP6lEQ9t9-16" value="메서드가 리턴될 때" style="text;html=1;strokeColor=none;fillColor=none;align=center;verticalAlign=middle;whiteSpace=wrap;rounded=0;" vertex="1" parent="1">
          <mxGeometry x="330" y="520" width="110" height="20" as="geometry" />
        </mxCell>
        <mxCell id="LeOhQyQI-MQeP6lEQ9t9-17" value="예외가 발생될 때" style="text;html=1;strokeColor=none;fillColor=none;align=center;verticalAlign=middle;whiteSpace=wrap;rounded=0;" vertex="1" parent="1">
          <mxGeometry x="336" y="575" width="110" height="20" as="geometry" />
        </mxCell>
        <mxCell id="LeOhQyQI-MQeP6lEQ9t9-18" value="Before 어드바이스 실행 시점" style="text;html=1;strokeColor=#6c8ebf;fillColor=#dae8fc;align=center;verticalAlign=middle;whiteSpace=wrap;rounded=0;" vertex="1" parent="1">
          <mxGeometry x="120" y="30" width="170" height="30" as="geometry" />
        </mxCell>
        <mxCell id="LeOhQyQI-MQeP6lEQ9t9-19" value="After 어드바이스 실행 시점" style="text;html=1;strokeColor=#6c8ebf;fillColor=#dae8fc;align=center;verticalAlign=middle;whiteSpace=wrap;rounded=0;" vertex="1" parent="1">
          <mxGeometry x="120" y="380" width="170" height="30" as="geometry" />
        </mxCell>
        <mxCell id="LeOhQyQI-MQeP6lEQ9t9-20" value="Before 어드바이스" style="text;html=1;strokeColor=#b85450;fillColor=#f8cecc;align=center;verticalAlign=middle;whiteSpace=wrap;rounded=0;" vertex="1" parent="1">
          <mxGeometry x="320" y="119" width="100" height="30" as="geometry" />
        </mxCell>
        <mxCell id="LeOhQyQI-MQeP6lEQ9t9-22" value="After 어드바이스" style="text;html=1;strokeColor=#b85450;fillColor=#f8cecc;align=center;verticalAlign=middle;whiteSpace=wrap;rounded=0;" vertex="1" parent="1">
          <mxGeometry x="215" y="525" width="100" height="90" as="geometry" />
        </mxCell>
      </root>
    </mxGraphModel>
  </diagram>
</mxfile>
